<?xml version="1.0" standalone="no"?>
<!DOCTYPE svg PUBLIC "-//W3C//DTD SVG 1.1//EN" "http://www.w3.org/Graphics/SVG/1.1/DTD/svg11.dtd">
<svg xmlns="http://www.w3.org/2000/svg" xmlns:xlink="http://www.w3.org/1999/xlink" version="1.1" id="Layer_1" x="0px" y="0px" width="1627.7900390625" height="1810" viewBox="0 0 1627.79 1810" style="enable-background:new 0 0 1627.79 1810;" xml:space="preserve">
<style type="text/css">
	.st0{display:none;fill:#FECF39;}
	.st1{fill:#0097D9;}
	.st2{fill:#FFFFFF;}
	.st3{fill:#FF0011;}
	.st4{fill:#DD308A;}
	.st5{fill:#AEB2B5;}
	.st6{fill:#FECC1F;}
	.st7{fill:#8E4AA2;}
	.st8{fill:#FECF39;}
	.st9{fill:#FFC332;}
	.st10{display:none;opacity:0.902;fill:#363636;}
	.st11{display:none;opacity:0.8784;fill:#363636;}
	.st12{fill:#387DCE;}
	.st13{fill:#613282;}
	.st14{fill:#594463;}
	.st15{fill:#00C06B;}
	.st16{fill:#FF9845;}
	.st17{fill:#7569CD;}
	.st18{fill:#ABAAB6;}
	.st19{fill:#5F4D7E;}
	.st20{fill:#0067B2;}
	.st21{fill:#C8CCCD;}
	.st22{fill:#478ED7;}
	.st23{opacity:0.902;fill:#FFFFFF;}
	.st24{opacity:0.902;fill:#84438B;}
	.st25{opacity:0.902;}
	.st26{fill:#00AE77;}
	.st27{fill:#6843B7;}
	.st28{fill:url(#SVGID_1_);}
	.st29{fill:url(#SVGID_2_);}
	.st30{fill:url(#SVGID_3_);}
	.st31{fill:url(#SVGID_4_);}
	.st32{fill:url(#SVGID_5_);}
	.st33{fill:url(#SVGID_6_);}
	.st34{fill:url(#SVGID_7_);}
	.st35{fill:url(#SVGID_8_);}
	.st36{fill:url(#SVGID_9_);}
	.st37{fill:url(#SVGID_10_);}
	.st38{fill:url(#SVGID_11_);}
	.st39{fill:url(#SVGID_12_);}
	.st40{fill:url(#SVGID_13_);}
	.st41{fill:url(#SVGID_14_);}
	.st42{fill:#6D539B;}
	.st43{fill:#923FB9;}
	.st44{fill:#FFA73E;}
	.st45{fill:#FF903D;}
</style>
<path class="st7" d="M659.67,613.5c19.23,33.03,55.42,55.73,93.76,58.82c38.34,3.09,77.75-13.53,102.1-43.05  c3.32,36.9,37.9,68.37,75.26,68.5s72.17-31.1,75.75-67.98c-6.62,28.59,28.27,53.15,57.35,47.7s62.02-10.08,78.59-34.38  c43.95,35.04,106.03,31.78,158.22,10.77c130.67-52.61,60.1-113.24,40.89-165.81c-12.34-33.76-39.78-60.42-70.83-78.89  c-31.06-18.47-65.86-29.67-100.32-40.72"/>
<path class="st7" d="M975.92,310.9c-13-41.05-35.96-92.03-79.82-105.13c-43.86-13.1-94.45-23.37-130.78,2.94  c-32.44-25.37-80.04-36.58-119.62-22.42c-17.27,6.18-27.71,20.51-46.09,22.42c-18.76,1.95-42.42-11.93-60.97-15.16  c-48.13-8.38-100.8,33.97-132.64,68.51c-36.96-15.83-66.68-47.76-106.93-53.35c-81-11.26-176.57,33.56-210.48,140.03  c-14.55,45.69-38.77,231.19,36.33,303.32c50.88,48.87,380.51,104.23,508.54,19.41"/>
<path d="M1408.52,667.65c21.46,5.09,46.51-13.52,61.98-29.24c15.46-15.72,22.56-36.43,30.26-57.09  c15.53-41.62,26.12-85.09,31.49-129.19c4.28-35.18,4.93-72.4-10.44-104.33c-15.37-31.94-44.36-63.92-79.02-56.52  c27.86-32.04,41.82-71.92,31.36-113.06c-10.47-41.15-49.63-69.78-91.62-76.06c-41.99-6.28-83.17,14.45-97.23,54.51  c-16.23,46.23-7.18,106.17,25.67,135.93c-51.92-25.57-173.38-6.68-216.03,32.44c-6.47-28.15-24.48-40.7-53.37-40.61  c-28.89,0.08-57.91,8.56-86.34,3.43c-33.94-6.12-31.21-30.45-62.4-45.15c-31.19-14.7-96.94-20.27-114.67,9.31  c-42.77-32.88-100.14-21.74-156.1,15.21c-47.69-10.16-104.71-20.65-149.64-1.71c-81.87,34.51-25.35,35.56-81.08,5.51  C183.03,158.67,50.21,437.52,140.73,598.3c27.93,49.61,102.06,52.69,158.54,45.53c71.07-9.01,112.64-55.68,147.56-100.65  c-20.99,41.04,28.02,143.11,122.23,74.47c49.63-36.16,46-113.48,55.62-149.03c-52.77,155.67,8.66,208.51,25.34,215.56  c13.58,5.74,45.06,6.38,54.78-0.44c38.81-27.26,29.39-86.62,43.97-127.88c-10.78,27.34-7.55,94.37,43.52,92.37  c52.98-9.7,58.76-56.23,66.91-100.73c0.08,61.21,38.71,95.57,125.91,99.87c58.77,2.9,110.06-0.49,121.3-60.66  c22.52,29.46,49.41,43.27,76.6,45.12c32.92,2.24,58.17-0.11,82.53-22.36c-11.11,8.75,15.43,27.41,28.41,21.79  c54.3-23.52,75.66-72.4,66.42-46.34C1340.57,640.73,1387.06,662.56,1408.52,667.65z"/>
<path class="st14" d="M1314.79,583.02c-3.14,4.61-17.22,13.57-28.06,13.4c-41.55-0.65-27.01-48.38-22.78-73.48  c7.59-45.09,21.62-92.87,32.47-137.3c15.32-62.7,19.3-108.5,53.12-115.16c9.26-1.82,17.43,2.54,25.62,11.32  c16.92,18.14,4.44,61.51-4.23,91.09c10.42-13.65,25.38-23.78,41.93-28.37c14.04-3.89,29.91-3.61,42.25,4.14  c10.46,6.57,17.29,17.79,21.07,29.55c8.35,25.97,3.26,54.13-1.9,80.92c-6.52,33.83-13.03,67.66-19.55,101.49  c-2.14,11.12-4.33,22.39-9.23,32.61c-16.37,34.12-49.4,30.96-59.66,17.84c-8.72-11.16-5.41-30.33-3.48-44.36  c5.52-40.13,13.33-79.93,23.4-119.17c2.57-10.03,7.39-35.1-4.44-41.55c-13.95-7.61-36.44-10.58-44.37,3.2"/>
<path class="st2" d="M512.42,344.91l66.27,2.86c12.62,0.54,22.09,11.62,20.82,24.18c-0.9,8.92-2.92,19.07-6.84,37.24  c-8.82,40.82-15.27,70.01-27.92,112.41c-4.2,14.1-27.33,108.26-83,70.66c-21.83-14.74-14.24-43.88,20.95-204.47"/>
<ellipse class="st13" cx="1363.6" cy="208.71" rx="67.17" ry="63.87"/>
<path class="st16" d="M1258.75,327.83c-21.22-21.22-62.04-18.64-89.08-12.8c-47.71,10.31-79.35,43.83-94.34,113.97  c-0.99,4.64-4.23,22.74-4.68,32.5c-1.38,29.82,6.73,62.16,24.46,86.17s44.97,42.73,73.88,50.18c16.76,4.32,36.39,1.88,51.73-6.15  c15.33-8.03,32.26-27.79,26.77-44.2c-5.22-15.59-11.87-31.06-36.83-29.35c-16.4,1.13-43.77-1.83-54.73-14.08  c-13.34-14.91-12.79-35.66-6.66-55.56c6.13-19.9,20.74-31.41,40.97-36.33c10.97-2.67,33.05-2.74,44.34-2.99s18.88,2.98,26.86-5  C1279.42,386.21,1263.11,332.2,1258.75,327.83z"/>
<path class="st16" d="M1072.12,343.92c-11.75,16.12-42.01,8.65-58,7.8c-20.08-1.06-39.66-3.7-59.74-2.62  c-15.02,0.81-30.52,5.25-43.29,13.18c-12.77,7.93-21.02,20.79-17.79,35.45c-5.64-13.23-8.36-29.56-0.32-41.49  c7.89-11.7,21.15-18.94,34.86-22.39s28.01-3.52,42.14-3.57c25.36-0.08,50.72-0.17,76.08-0.25c4.45-0.01,9.03-0.01,13.14,1.67  C1063.32,333.37,1074.34,340.88,1072.12,343.92z"/>
<path class="st16" d="M1025.3,429c4.27,1,6.96,6.82,5.72,10.99s-2.85,9.19-7.02,10.51c-4.18,1.32-11.34,2.17-15.73,2.1  c0,0-47.59,0.36-70.84,0c-15.7-0.25-31.9-1.87-46.89,2.74c-15,4.61-24.88,13.36-29.82,28.12c4.44-16.05,8.46-33.93,21.58-44.33  c16.53-13.1,39.3-14.44,60.46-15.21C970.87,422.89,998.98,422.86,1025.3,429z"/>
<path class="st16" d="M1063.94,334.59c-0.74,4.98-3.48,8.22-8.06,10.32c-4.58,2.1-9.73,4.84-14.76,5.07  c-38.04,1.67-76.8-8.45-113.84,0.36c-12.01,2.86-24.13,8.12-31.43,18.08s-7.98,25.47,1.14,33.78c7.35,6.7,18.3,7.03,28.24,7  c33.67-0.1,67.33-0.21,101-0.31c18.66-0.06,39.62-1.07,52.27-14.8c7.93-8.61,10.91-21.48,7.58-32.7  C1082.74,350.15,1071.98,339.52,1063.94,334.59z"/>
<path class="st16" d="M1023.77,429c5.8,1.89,7.3,11.82,2.97,16.11c-4.33,4.29-10.96,5.06-17.05,5.36  c-35.02,1.73-70.32-4.07-105.07,0.63c-14.07,1.9-29.04,6.26-37.43,17.71c-7.72,10.53-11.76,14.34-10.18,38.73  c1,15.41,10.07,31.23,17.42,44.81c5.69,10.5,15.32,20.47,25.48,26.76c12.57,7.79,24.63,16.62,39.37,17.79  c19.34,1.53,41.38,1.4,60.15,1.4c12.17,0,29.86-2.49,41.64-4.35c12.02-1.9,24.1-15.15,27.93-26.71  c5.15-15.55-4.09-36.27-18.61-43.85c-18.01-9.4-69.51-3.63-77.28-3.76c-19.32-0.32-30.43-1.21-27.45-15.15  c26.2-0.72,56.66,0.33,82.83-1.11c7.25-0.4,16.92-7.31,23.24-10.88c12.53-7.08,12.82-28.1,6.87-41.21S1037.91,430.35,1023.77,429z"/>
<path class="st16" d="M903.67,347.39c-4.97-0.23-9.55,3.11-12.22,7.3c-2.67,4.2-3.32,9.29-4.84,14.03  c-10.99,34.27-18.29,64.52-25.88,97.61c-3.24,14.14-1.85,33.4,7.38,45.22c8.55,10.95,25.07,13.1,38.05,8.13  c12.97-4.97,26.28-13.78,31.2-26.77c16.22-42.85,26.96-89.97,46.14-133.89"/>
<path class="st2" d="M237.54,316.3c-9.77,2.79-17.25,10.67-19.57,20.56C200.37,412.1,189.36,473.58,174.94,548  c-1.67,8.63,0.55,20.44,5.48,27.71c5.65,8.33,17.7,16.15,27.65,17.66c28.2,4.25,85.35,2.85,115.16,1.64  c74.68-3.02,75.33-18.63,88.08-51.35c5.46-13.99,0.91-84.15-33.9-106.23c25.62-8.95,51.24-27.72,53.32-54.78  s-17.36-58.95-41.32-71.71c-18.98-10.11-41.42-11-62.92-10.57C298.77,300.92,260.18,309.83,237.54,316.3z"/>
<path d="M283.62,379.3c-3.14,12.85-5.14,23.6-7.72,36.35c10.32,0,18.46,0.37,26.75,0.37c9.44,0,16.41,0.17,25.1-0.36  c8.7-0.53,17.69-2.05,23.1-8.88s6.97-17.84,0.58-23.76c-5.29-4.91-14.33-4.61-21.55-4.57C314.72,378.53,297.19,379.3,283.62,379.3z"/>
<path d="M262.97,484.86c-3.53,12.85-5.77,23.6-8.68,36.35c11.59,0,20.75,0.37,30.06,0.37c10.61,0,18.44,0.17,28.21-0.36  c9.77-0.53,19.88-2.05,25.96-8.88s7.83-17.84,0.65-23.76c-5.95-4.91-16.11-4.61-24.22-4.57  C297.93,484.09,278.23,484.86,262.97,484.86z"/>
<path class="st2" d="M507.61,378.43c-10.88,45.02-19.62,91.05-30.5,136.07c-2.92,12.1-8.3,34.56-8.32,47.02  c-0.02,12.45,5.58,18.31,13.63,27.81c8.05,9.5,21.58,11.66,33.45,7.88c12.96-4.12,26.38-16.53,28.94-29.89  c13.23-69.15,26.7-123.48,39.21-188.89C559.73,378.43,533.85,378.43,507.61,378.43z"/>
<path class="st16" d="M782.83,334.66c-4.4,23.4-16.96,149.81-27.5,222.17c-1.31,8.99-5.17,21.36-0.67,29.25  c4.08,7.17,5.65,8.62,13.33,11.63c13.08,5.13,28.79,8.14,40.51,0.38c10.46-6.93,14.65-20.11,17.42-32.35  c16.54-73.06,31.03-148.03,43.77-225.15c10.89,1.79,41.8,13.4,51.62,6.79c12.76-8.6,15.75-53.26,0-61.19  c-35.13-17.69-220.6-32.74-192.85,30.68C728.93,317.94,782.61,339.17,782.83,334.66z"/>
<ellipse transform="matrix(0.3791 -0.9253 0.9253 0.3791 83.8025 684.4743)" class="st20" cx="551.97" cy="279.79" rx="54.67" ry="51.86"/>
<path class="st2" d="M667.22,350.45c-14.02,77.57-28.05,155.17-39.51,233.16c-2.21,15.02-4.3,30.44-1,45.25s13.2,29.11,27.79,33.3  c17.8,5.12,36.98-6.49,46.62-22.31c9.64-15.81,11.95-34.88,14.03-53.28c9.05-79.77,18.1-159.54,27.16-239.31  c3.04,1.48,24.66-6.44,40.52-12.61c10.7-4.16,86.12-97.21-135.54-44.89c-9.78,2.31-19.64,5.53-27.42,11.91s-13.13,16.48-11.49,26.4  c1.9,11.49,12.67,19.88,23.98,22.63C643.69,353.46,655.55,351.72,667.22,350.45z"/>
<circle class="st22" cx="1003.96" cy="240.62" r="15.12"/>
<circle class="st22" cx="1079.82" cy="240.62" r="15.12"/>
<circle class="st22" cx="1154.54" cy="240.62" r="15.12"/>
<circle class="st22" cx="1224.91" cy="240.62" r="15.12"/>
<circle cx="299.08" cy="831.24" r="26.66"/>
<circle class="st16" cx="289.08" cy="823.96" r="26.66"/>
<circle cx="1327.36" cy="827.6" r="26.66"/>
<circle class="st16" cx="1317.37" cy="820.33" r="26.66"/>
<path class="st23" d="M538.31,792.3c-0.76-7.18-8.63-12.26-15.2-9.42c-10.68,5.21-8.41,45.4-10.57,58.17  c-1.2-1.95-2.4-3.89-3.69-5.78c-9.25-14.17-18.56-28.33-28.21-42.23c-4.41-6.18-8.74-12.45-13.89-18.04  c-2.69-2.79-5.38-5.93-9.02-7.43c-8.51-3.55-17.45,2.54-17.08,11.59c-1.19,9.1-1.77,18.26-1.98,27.43  c-0.3,12.54-0.17,25.15-0.18,42.49c0.05,5.72,0.1,8.07,0.1,9.12c0,2.5,0.9,4.9,2.25,6.98c1.44,1.92,3.59,3.8,6.14,3.57  c10.15-2.83,7.13-15.61,7.92-23.6c0.77-15.26,0.69-30.61,2.13-45.83c8.35,12.33,16.11,25.07,24.44,37.41  c4.69,7.18,9.43,14.31,13.99,21.57c3.96,6.81,8.74,14.32,17.22,15.47c16.91,1.6,20.69-18.99,22.41-31.85  C537.15,825.45,539.53,808.93,538.31,792.3z"/>
<path class="st23" d="M606.85,855.63c-1.82-0.51-6.57-1.74-5.69-1.48c-0.7-0.19-1.38-0.37-1.92-0.51  c-6.58-1.95-13.21-3.99-19.34-7.1c-0.67-0.48-1.7-1.25-2.51-1.95c-0.64-0.74-1.82-2.14-2.36-3.07c-0.31-0.66-0.58-1.35-0.8-2.05  c-0.12-0.63-0.19-1.26-0.24-1.9c0.07-0.75,0.17-1.49,0.25-2.23c3.02,0.82,6.15,1.39,8.78,2.18c6.49,1.51,14.38,2.88,19.03-3.15  c3.81-4.69,2.53-11.73-2.15-15.33c-3.34-2.63-7.5-2.76-11.57-2.77c-3.88-0.12-7.76-0.33-11.64-0.43c0.63-4.51,1.25-9.03,1.82-13.55  c6.43,0.73,12.94,0.44,19.4,0.17c3.91-0.28,7.98,0.03,11.66-1.49c10.64-4.38,9.85-18.47-2.94-20.97  c-3.81-0.74-20.94-0.03-27.64,0.05c-0.14,0-5.54-0.78-8-0.39c-5.31,0.66-7.95,5.94-8.49,10.82c-1.14,5.53-1.89,11.13-2.53,16.73  c-0.83,7.4-1.77,14.79-2.64,22.19c-0.45,4.62-1.06,9.39-0.05,13.97c1.8,8.01,6.62,15.38,13.36,20.09  c5.95,3.91,12.48,6.84,19.07,9.49c4.78,1.68,9.72,4.01,14.88,3.62c8.07-1.11,12.69-9.77,7.73-16.65  C610.9,858.02,608.98,856.62,606.85,855.63z"/>
<g>
	<path class="st23" d="M630.57,786.41c-0.01-0.01-0.03-0.01-0.04-0.02C630.73,786.52,630.81,786.57,630.57,786.41z"/>
	<path class="st23" d="M714.53,768.59c-4.19-3.48-9.59-3.13-14.7-2.97c-8.29,0.1-24.87,0.12-24.87,0.12   c-10.86-0.14-21.69,0.74-32.52,1.26l0.18,0c-2.6,0.08-5.2,0.36-7.81,0.42c-1.02,0.06-0.98,0.08-0.57,0.09   c-1.19,0.08-2.35,0.3-3.5,0.67c-7.96,3-8.11,15.03-0.2,18.2c-0.2-0.13-0.52-0.33-0.86-0.55c4.63,2.67,10.56,3.6,15.79,3.81   c2.78,0.06,5.55,0,8.33-0.08c-1.02,2.74-0.72,5.68-0.68,8.57c0.21,5.5,0.41,11,0.56,16.5c0.35,13.25,1.12,50.44,1.99,58.69   c0.63,5.99,5.84,6.32,12.83,1.07c3.81-2.86,3.78-8.11,4.43-12.43c1.14-12.56,0.34-25.19,0.28-37.78   c-0.12-8.48-0.22-16.96-0.45-25.43c0.01-3.33-0.09-6.78-1.37-9.74c0.9-0.01,1.79-0.03,2.69-0.02c10.08,0.03,20.16,0.13,30.24,0.08   C715.87,790.13,724.45,776.98,714.53,768.59z"/>
</g>
<g>
	<path class="st23" d="M752.33,789.77c0.05,0.1,0.1,0.19,0.15,0.29C752.53,790.12,752.45,789.99,752.33,789.77z"/>
	<path class="st23" d="M901.15,785.4c-1.43-9.58-12.6-12.68-18.8-5.23c-2.23,2.98-2.8,6.74-4.18,10.14   c-3.01,8.42-6.31,16.73-9.81,24.95c-6.57,14.43-9.87,22.94-16.04,31.48c-7.92-13.15-14.97-26.87-23.7-39.52   c-3.24-4.81-6.9-9.62-12.2-12.25c-7.11-3.41-16.28-0.94-20.56,5.73c-1.29,1.32-13.07,27.57-18.69,34.78   c-1.26,1.77-2.24,3.15-3.04,4.29c-6.27-14.77-11.94-29.81-18.67-44.38c-0.88-1.74-1.4-2.55-1.12-1.98   c-0.74-1.36-1.5-2.71-2.26-4.05c0.1,0.16,0.19,0.31,0.26,0.43c-0.29-0.61-0.63-1.19-1-1.75c-0.05-0.08-0.09-0.17-0.14-0.25   c0.01,0.03,0.03,0.08,0.05,0.11c-0.23-0.34-0.48-0.66-0.74-0.98c0.3,0.3,0.25,0.17-0.61-0.99c-5.18-8.27-18.23-5.96-19.57,3.93   c-0.73,1.64,0.97,6.69,1.37,7.36c0.55,1.86,1.39,3.65,2.04,5.49c0.23,0.8,0.54,1.58,0.87,2.35c6.03,15.72,12.31,31.36,18.92,46.84   c5.71,16.45,17.37,17.45,24.33,14.45c8.74-4.02,14.22-12.43,19.18-20.31c4.67-7.75,9.26-15.57,13.31-23.66   c0.27,0.41,0.54,0.83,0.82,1.24c6.84,10.57,12.95,21.59,19.32,32.45c3.34,5.1,5.62,11.03,10.19,15.2   c15.62,12.09,28.59-6.45,35.05-19.27c7.13-13.65,13.05-27.9,18.36-42.35c1.85-5.03,3.61-10.1,5.26-15.2   C900.34,791.52,901.52,788.55,901.15,785.4z"/>
</g>
<path class="st23" d="M988.84,783.49c-3.35-10.48-35.54-9.16-39.6-7.95c-0.28,0.8-26.14,8.39-32.66,38.81  c-5.33,24.82,15.91,48.21,40.93,46.85c17.51-1.05,33.08-13.68,38.9-30.05C1001.63,814.9,1000.73,796.22,988.84,783.49z   M975.06,822.29c-2.13,6.27-2.6,5.28-2.88,6.14c-4.92,6.03-2.97,3.44-5.97,6.09c-0.47,0.36-0.98,0.66-1.47,0.99  c-1.4,0.69-2.83,1.29-4.31,1.78c-0.38,0.12-0.68,0.21-0.92,0.29c-1.26,0.28-2.54,0.52-3.83,0.62c-1.69-0.12-3.36-0.38-5.01-0.75  c-1.19-0.39-2.36-0.84-3.5-1.35c-0.34-0.17-0.61-0.31-0.86-0.44c-0.94-0.64-1.85-1.32-2.7-2.07c-0.38-0.33-0.71-0.64-1.02-0.93  c-1.03-1.16-1.98-2.39-2.81-3.71c-0.53-1.12-1.01-2.26-1.38-3.44c-0.2-0.97-0.38-1.94-0.49-2.92c-0.05-0.63-0.12-1.25-0.14-1.88  c0-0.03,0-0.05,0-0.09c-0.02-1.55,0.8-5.15,0.97-5.97c0.2-0.66,0.46-1.47,0.73-2.21c3.67-8.52,2.52-7.25,9.34-15.26  c2.2-2.59,17.19-8.45,23.96,4.72c0.88,1.71,1.65,3.47,2.24,5.3C975.21,808.43,976.93,813.11,975.06,822.29z"/>
<path class="st23" d="M1092.21,845.26c-7.56-3.26-15.19-6.37-22.67-9.8c11.35-7.32,20.68-17.66,25.08-29.33  c5.26-12.89-0.71-28.56-13.08-34.87c-4.44-2.49-9.51-3.66-14.5-4.44c-11.04-0.52-1.64-0.51-15.75,0.04  c-5.14,0.43-10.28,0.83-15.39,1.54c-2.05,0.3-4.2,0.6-6.09,1.39c-1.37-0.22-2.8-0.13-4.16,0.44c-8.09,3.62-4.86,13.93-5.46,20.98  c-0.08,16.9,2.11,33.68,4.21,50.42c0.72,6.62,1.46,13.24,2.13,19.86c0.19,3.8,1.8,7.54,4.83,9.91c4.25,3.12,9.15,2.32,12.38-1.6  c4.57-6.08,1.58-13.38,1.12-20.2c-0.01-0.11-0.03-0.23-0.04-0.34c6.47,3.93,13.34,7.15,20.27,10.18  c8.12,3.45,16.21,6.97,24.37,10.31c6.89,2.83,15.84-1.05,16.91-8.79C1107.08,851.59,1099.78,848.05,1092.21,845.26z M1038.06,788.62  c-0.13-0.97-0.21-1.95-0.28-2.94c9.48-0.42,6.54-0.5,19.85,0.11c9.47,1.27,5.29,0.29,13.72,3.71c0.03,0.02,0.05,0.03,0.08,0.04  c0.44,0.3,0.86,0.62,1.26,0.97c0.64,0.75,1.23,1.53,1.77,2.36c0.22,0.47,0.47,1.05,0.68,1.63c0.06,0.36,0.13,0.82,0.18,1.3  c-0.06,0.64-0.15,1.52-0.3,2.34c-0.38,1.12-1.06,3.05-1.72,4.49c-1.62,2.36-3.51,4.53-5.5,6.59c-0.07,0.07-0.14,0.14-0.22,0.22  c-0.04,0.04-0.06,0.06-0.11,0.1c-2.52,2.35-5.36,4.31-8.32,6.07c-5.27,2.87-10.94,4.9-16.7,6.54c-0.31,0.1-0.61,0.23-0.91,0.35  C1040.25,811.23,1039.06,799.93,1038.06,788.62z"/>
<path class="st23" d="M1199.83,853.03c-1.35-3.39-4.05-5.87-6.93-7.99c-4.31-3.42-8.89-6.5-13.42-9.62  c-11.65-7.36-17.89-11.3-25.69-15.48c0.02-0.02,0.04-0.05,0.06-0.07c4.7-5.82,9.33-11.71,13.81-17.7c4.2-6.1,9.53-11.55,13.08-18.04  c1.52-4.01,0.75-9.43-3.53-11.34c-8.87-3.2-13.69,6.72-18.34,12.39c-6.45,8.64-13.24,17.03-19.43,25.86  c-0.53-3.86-1.06-7.72-1.58-11.59c-1.41-9.88-3.57-25.96-4.76-28.95c-1.82-4.8-8.34-6.93-12.47-3.68  c-5.11,3.84-3.07,10.8-3.17,16.31c0.82,16.04,2.09,32.04,3.81,48.01c0.97,9.38,1.99,18.76,3.03,28.13  c0.81,6.47,0.37,14.71,6.98,18.26c5.23,3.54,12.1,0.51,14.5-5.05c1.33-3.01,1.23-6.32,0.68-9.5c-0.84-6.24-1.7-12.47-2.54-18.71  c-0.32-2.42-0.65-4.85-0.97-7.27c2.41,2.07,4.72,3.88,6.33,5.27c7.98,6.45,16.54,12.12,24.84,18.14c4.3,2.92,8.4,6.89,13.66,7.76  C1196.81,869.34,1203.11,861.54,1199.83,853.03z"/>
<circle class="st16" cx="1363.6" cy="208.71" r="43.72"/>
<path class="st45" d="M745.39,1052.24c-25.8,61.06-51.6,122.11-77.4,183.17c56.12-3.13,112.24-6.25,168.37-9.38  c-75.9,61.42-146.8,128.21-211.9,199.6c61.41-22.3,127.31-33.82,193.21-33.77c-82.19,67.21-155.54,143.8-217.9,227.52  c113.73-89.4,230.38-170.8,344.11-260.2c0,0-109.97,16.27-164.69,13.32c55.11-58.21,110.21-116.42,165.32-174.63l-219.58,12.76  c74.68-73.3,149.37-146.6,224.05-219.89c-7.26,1.21-4.67-2.92-7.24-10.52C867.93,999.92,795.46,1023.86,745.39,1052.24z"/>
</svg>